<svg width="100" height="100" viewBox="0 0 100 100" fill="none" xmlns="http://www.w3.org/2000/svg">
<path d="M57.625 79.1667C57.0025 79.1688 56.3875 79.0314 55.8251 78.7646C55.2626 78.4978 54.7671 78.1084 54.375 77.625L34.25 52.625C33.6372 51.8795 33.3021 50.9443 33.3021 49.9792C33.3021 49.0141 33.6372 48.0789 34.25 47.3333L55.0833 22.3333C55.7906 21.4824 56.8069 20.9473 57.9086 20.8458C59.0104 20.7442 60.1074 21.0844 60.9583 21.7917C61.8092 22.4989 62.3443 23.5152 62.4459 24.617C62.5475 25.7188 62.2072 26.8158 61.5 27.6667L42.875 50L60.875 72.3333C61.3845 72.9449 61.7082 73.6897 61.8077 74.4795C61.9072 75.2693 61.7783 76.071 61.4364 76.7899C61.0945 77.5088 60.5539 78.1146 59.8784 78.5359C59.2029 78.9571 58.421 79.176 57.625 79.1667Z" fill="white"/>
</svg>
