<svg width="100" height="100" viewBox="0 0 100 100" fill="none" xmlns="http://www.w3.org/2000/svg">
<path d="M41.6667 79.1667C40.6931 79.1686 39.7496 78.8295 39 78.2084C38.5781 77.8586 38.2293 77.429 37.9737 76.9442C37.7181 76.4594 37.5606 75.929 37.5103 75.3833C37.46 74.8375 37.5178 74.2872 37.6805 73.7639C37.8432 73.2405 38.1075 72.7544 38.4583 72.3334L57.125 50L39.125 27.625C38.7789 27.1988 38.5204 26.7084 38.3645 26.182C38.2085 25.6556 38.1581 25.1036 38.2162 24.5576C38.2743 24.0117 38.4397 23.4826 38.7029 23.0007C38.9661 22.5189 39.322 22.0939 39.75 21.75C40.1811 21.3707 40.686 21.0846 41.2329 20.9096C41.7798 20.7347 42.357 20.6747 42.9282 20.7334C43.4995 20.7921 44.0524 20.9682 44.5523 21.2507C45.0522 21.5332 45.4884 21.916 45.8333 22.375L65.9583 47.375C66.5712 48.1206 66.9062 49.0558 66.9062 50.0209C66.9062 50.986 66.5712 51.9212 65.9583 52.6667L45.125 77.6667C44.707 78.1709 44.176 78.5695 43.5752 78.8302C42.9743 79.0908 42.3205 79.2061 41.6667 79.1667Z" fill="white"/>
</svg>
